<?xml version="1.0" encoding="utf-8"?>
<!-- Generator: Adobe Illustrator 23.0.3, SVG Export Plug-In . SVG Version: 6.00 Build 0)  -->
<svg version="1.1" id="Layer_1" xmlns="http://www.w3.org/2000/svg" xmlns:xlink="http://www.w3.org/1999/xlink" x="0px" y="0px"
	 viewBox="0 0 57.6 19.5" style="enable-background:new 0 0 57.6 19.5;" xml:space="preserve">
<style type="text/css">
	.st0{fill:#54BABA;}
	.st1{fill:#222046;}
	.st2{fill:#F41C40;}
	.st3{fill:#FFFFFF;}
	.st4{fill:#EFAE1D;}
</style>
<path class="st2" d="M7,19H6.8c-3.2,0-5.9-2.6-5.9-5.9V1.6c0-0.6,0.5-1.2,1.2-1.2h9.6c0.6,0,1.2,0.5,1.2,1.2v11.6
	C12.9,16.4,10.3,19,7,19z"/>
<g>
	<path class="st1" d="M25.5,1.8c0,0.2-0.1,0.3-0.3,0.4l-0.1,0c0,0,0,0-0.1,0c0,0-0.1,0-0.1,0l-0.3,0.1v7.4h-0.8
		c-0.1,0-0.2,0-0.3-0.1c-0.1,0-0.2-0.1-0.2-0.2l-4.5-5.7c0,0.2,0,0.3,0,0.4l0,0.3v4.1l0.8,0.1c0.2,0,0.3,0.2,0.3,0.4v0.7h-3.4V8.9
		c0-0.2,0.1-0.3,0.3-0.4l0.1,0l0.2,0l0.4-0.1V2.2l-0.4-0.1c0,0-0.1,0-0.1,0c0,0-0.1,0-0.1,0l-0.1,0c-0.2,0-0.3-0.2-0.3-0.4V1.1h1.7
		l0.2,0c0.1,0,0.1,0,0.1,0c0,0,0.1,0,0.1,0.1l0.1,0.1L23.3,7l0-0.4c0-0.1,0-0.2,0-0.4v-4l-0.8-0.1c-0.2,0-0.3-0.2-0.3-0.4V1.1h3.4
		V1.8z"/>
	<path class="st1" d="M32.7,3.3H32c-0.1,0-0.2-0.1-0.3-0.2c0-0.3-0.1-0.6-0.1-0.8h-2.8v2.4h2.9v1.2h-2.9v2.4h2.8
		c0-0.2,0-0.4,0.1-0.8c0-0.1,0.1-0.2,0.3-0.2h0.7v2.3h-6.3V8.9c0-0.2,0.1-0.3,0.3-0.4l0.1,0c0,0,0,0,0.1,0c0,0,0.1,0,0.1,0l0.4-0.1
		V2.2L27,2.2c0,0-0.1,0-0.1,0c0,0-0.1,0-0.1,0l-0.1,0c-0.2,0-0.3-0.2-0.3-0.4V1.1h6.3V3.3z"/>
	<path class="st1" d="M40.6,3.8c0,0.4-0.1,0.8-0.2,1.1S40,5.6,39.8,5.8c-0.3,0.2-0.6,0.4-1,0.6c-0.4,0.1-0.9,0.2-1.5,0.2h-1.1v1.8
		l0.4,0.1c0,0,0.1,0,0.1,0c0,0,0.1,0,0.1,0l0.1,0c0.2,0,0.3,0.2,0.3,0.4v0.7h-3.4V8.9c0-0.2,0.1-0.3,0.3-0.4l0.1,0l0.2,0l0.4-0.1
		V2.2l-0.4-0.1c0,0-0.1,0-0.1,0s-0.1,0-0.1,0l-0.1,0c-0.2,0-0.3-0.2-0.3-0.4V1.1h3.5c0.6,0,1.1,0.1,1.5,0.2c0.4,0.1,0.7,0.3,1,0.6
		c0.3,0.2,0.5,0.5,0.6,0.9C40.5,3,40.6,3.4,40.6,3.8z M39,3.8c0-0.2,0-0.4-0.1-0.6c-0.1-0.2-0.2-0.3-0.3-0.5
		c-0.1-0.1-0.3-0.2-0.5-0.3c-0.2-0.1-0.5-0.1-0.8-0.1h-1.1v3.1h1.1c0.3,0,0.6,0,0.8-0.1c0.2-0.1,0.4-0.2,0.5-0.3
		c0.1-0.1,0.2-0.3,0.3-0.5C39,4.3,39,4,39,3.8z"/>
	<path class="st1" d="M48.6,9v0.6h-2.9V9c0-0.1,0.1-0.2,0.2-0.3l0.2-0.1l-0.5-1.3h-3.4l-0.5,1.3l0.2,0.1c0.2,0.1,0.2,0.2,0.2,0.3
		v0.6h-2.9V9c0-0.1,0.1-0.2,0.2-0.3l0.7-0.3l2.9-7.4h1.6l2.9,7.4l0.7,0.3C48.6,8.8,48.6,8.9,48.6,9z M45.4,6.2l-1-2.7
		c-0.1-0.3-0.2-0.6-0.3-1l-0.1,0.4c-0.1,0.2-0.1,0.4-0.2,0.7l-1,2.6H45.4z"/>
	<path class="st1" d="M55.8,9.6h-6.2V8.9c0-0.2,0.1-0.3,0.3-0.4l0.1,0l0.2,0l0.4-0.1V2.2l-0.4-0.1c0,0-0.1,0-0.1,0s-0.1,0-0.1,0
		l-0.1,0c-0.2,0-0.3-0.2-0.3-0.4V1.1H53v0.7c0,0.2-0.1,0.3-0.3,0.4l-0.1,0l-0.2,0l-0.4,0.1v6.1h2.8c0-0.3,0-0.5,0-0.5
		c0-0.1,0.1-0.2,0.3-0.2h0.6V9.6z"/>
</g>
<g>
	<g>
		<path class="st3" d="M3.6,6.5C3.7,6.8,3.8,7.1,4,7.7c0.2,0.5,0.4,1,0.5,1.3c0.2,0.3,0.3,0.5,0.3,0.6s0,0.1,0,0.2
			c0,0.1-0.1,0.1-0.2,0.2c-0.1,0-0.2,0-0.2,0c-0.1,0-0.1-0.1-0.1-0.2c0-0.1-0.1-0.3-0.2-0.6C4,8.8,3.9,8.4,3.8,8.1
			C3.7,7.7,3.5,7.2,3.2,6.6c-0.1,0-0.1,0-0.2,0c-0.1,0-0.1-0.1-0.1-0.1c-0.1-0.2,0-0.3,0.3-0.4C3.3,6,3.5,6,3.8,6
			C4,6,4.3,6.1,4.6,6.3c0.3,0.2,0.7,0.4,1,0.7c0.1,0.1,0.3,0.3,0.6,0.6C6.5,8,6.7,8.2,6.8,8.3C6.4,7.2,6.1,6.5,5.9,6.1
			C5.9,6,5.8,5.9,5.7,5.8C5.7,5.7,5.6,5.6,5.6,5.5c0-0.1,0-0.2,0-0.2s0.1-0.1,0.2-0.2c0.1,0,0.1,0,0.2,0s0.1,0.1,0.2,0.2
			c0,0.1,0.1,0.3,0.2,0.7c0.2,0.7,0.5,1.6,0.9,2.7C7.8,9,8.1,9.3,8.4,9.4c0.1,0.1,0.3,0.1,0.4,0.1c0.1,0,0.3,0,0.3,0
			c0.2,0,0.3,0.1,0.3,0.2c0,0.1,0,0.1,0,0.2c0,0.1-0.1,0.1-0.2,0.2c-0.2,0.1-0.5,0.1-0.8-0.1c-0.3-0.1-0.6-0.3-1-0.6
			c-0.7-0.5-1.4-1.2-2.1-2C4.8,6.7,4.2,6.4,3.6,6.5z"/>
		<path class="st3" d="M7.4,6.3l1.1-0.4l1.1-0.4c0.1,0,0.1,0,0.2,0c0.1,0,0.1,0.1,0.1,0.1c0,0.1,0,0.1,0,0.2c0,0.1-0.1,0.1-0.1,0.1
			L8.7,6.3c-0.1,0-0.3,0.1-0.5,0.2c0,0,0,0.1,0.1,0.2c0.1,0.4,0.2,0.7,0.3,1c0.1,0,0.2-0.1,0.4-0.1c0-0.2,0.1-0.5,0.3-0.7
			c0.1-0.2,0.3-0.3,0.5-0.4c0.2-0.1,0.4,0,0.4,0.2c0,0.1,0,0.1,0,0.2c0,0.1-0.1,0.1-0.1,0.1c0,0-0.1,0-0.2,0c-0.1,0-0.2,0-0.3,0
			C9.5,7,9.4,7.1,9.4,7.2C9.3,7.3,9.2,7.4,9.2,7.5c0.1-0.1,0.3-0.1,0.5-0.2C9.9,7.2,10,7.2,10,7.2c0,0,0.1,0,0.1,0s0.1,0.1,0.1,0.1
			c0,0.1,0,0.1,0,0.2c0,0.1-0.1,0.1-0.1,0.1L9.4,7.8l-0.1,0C9.4,8,9.5,8.1,9.6,8.2c0.1,0.1,0.3,0.1,0.4,0c0.1,0,0.2-0.1,0.3-0.3
			c0.1-0.1,0.1-0.2,0.1-0.2c0.1,0,0.1,0,0.1,0c0,0,0,0.1,0,0.2c0,0.1-0.1,0.2-0.2,0.3c-0.1,0.1-0.3,0.2-0.4,0.3s-0.3,0-0.5,0
			C9.3,8.4,9.2,8.3,9.1,8.1c0,0,0-0.1,0-0.2L8.8,8.1C9,8.5,9.1,8.9,9.2,9.1c0.1,0.3,0.2,0.4,0.2,0.4L11,8.9c0.1,0,0.1,0,0.2,0
			c0.1,0,0.1,0.1,0.1,0.1s0,0.1,0,0.2c0,0.1-0.1,0.1-0.1,0.1l-1.1,0.4C10,9.8,9.8,9.8,9.6,9.9c-0.2,0.1-0.3,0.1-0.3,0.1
			c-0.1,0-0.2,0-0.2,0S8.9,10,8.9,9.9S8.8,9.6,8.7,9.3c-0.1-0.4-0.2-0.7-0.4-1C8.2,7.9,8,7.4,7.7,6.7l-0.1,0c-0.1,0-0.1,0-0.2,0
			c-0.1,0-0.1-0.1-0.1-0.1s0-0.1,0-0.2C7.3,6.4,7.4,6.3,7.4,6.3z"/>
	</g>
	<g>
		<path class="st4" d="M3.2,6.6c-0.1,0-0.1,0-0.2,0c-0.1,0-0.1-0.1-0.1-0.1c-0.1-0.2,0-0.3,0.3-0.4C3.3,6,3.5,6,3.8,6
			C4,6,4.3,6.1,4.6,6.3c0.3,0.2,0.7,0.4,1,0.7c0.1,0.1,0.3,0.3,0.6,0.6s0.5,0.5,0.7,0.7l0.4,0.3C7.8,9,8.1,9.3,8.4,9.4
			c0.1,0.1,0.3,0.1,0.4,0.1c0.1,0,0.3,0,0.3,0c0.2,0,0.3,0.1,0.3,0.2c0,0.1,0,0.1,0,0.2c0,0.1-0.1,0.1-0.2,0.2
			c-0.2,0.1-0.5,0.1-0.8-0.1c-0.3-0.1-0.6-0.3-1-0.6c-0.7-0.5-1.4-1.2-2.1-2c-0.6-0.7-1.2-1-1.8-0.9L3.2,6.6z"/>
	</g>
	<g>
		<path class="st3" d="M2.6,5.4c0,0.1-0.1,0.1-0.2,0.1c-0.1,0-0.1,0-0.2,0C2,5.5,2,5.3,2.1,5.1c0.1-0.2,0.2-0.3,0.4-0.5
			C2.8,4.5,3,4.4,3.4,4.3c0.4-0.1,0.8-0.1,1.2-0.1c0.1,0,0.4,0,0.9,0.1c0.4,0,0.7,0.1,0.9,0.1l0.6,0c0.6,0,1-0.1,1.3-0.2
			C8.4,4,8.5,4,8.7,3.9c0.1-0.1,0.2-0.1,0.3-0.2C9,3.6,9.2,3.6,9.3,3.6c0.1,0,0.1,0.1,0.1,0.2c0,0.1,0,0.2,0,0.2
			C9.3,4.2,9.1,4.4,8.8,4.5S8.1,4.7,7.6,4.7c-0.8,0-1.8,0-2.9-0.1C3.8,4.4,3.2,4.6,2.8,5.1L2.6,5.4z"/>
	</g>
	<g>
		<path class="st3" d="M4.9,11.8c0,0.1-0.1,0.1-0.2,0.1c-0.1,0-0.1,0-0.2,0c-0.2-0.1-0.2-0.2-0.1-0.5c0.1-0.2,0.2-0.3,0.4-0.5
			c0.2-0.1,0.5-0.3,0.8-0.4c0.4-0.1,0.8-0.1,1.2-0.1c0.1,0,0.4,0,0.9,0.1c0.4,0,0.7,0.1,0.9,0.1l0.6,0c0.6,0,1-0.1,1.3-0.2
			c0.1-0.1,0.3-0.1,0.4-0.2c0.1-0.1,0.2-0.1,0.3-0.2c0.1-0.1,0.3-0.1,0.4-0.1c0.1,0,0.1,0.1,0.1,0.2c0,0.1,0,0.2,0,0.2
			c-0.1,0.2-0.3,0.3-0.6,0.5s-0.7,0.2-1.1,0.2c-0.8,0-1.8,0-2.9-0.1c-0.9-0.1-1.5,0.1-1.9,0.5L4.9,11.8z"/>
	</g>
	<path class="st3" d="M8.8,11.8c0.2,0.5,0.4,1.3,0.8,2.3c0.4,1.1,0.8,1.9,1.1,2.6c0.3,0.7,0.5,1.1,0.6,1.2c0,0.1,0,0.3,0,0.4
		c-0.1,0.2-0.2,0.3-0.3,0.3c-0.2,0.1-0.3,0-0.4,0c-0.1-0.1-0.2-0.2-0.3-0.3s-0.2-0.5-0.3-1.3c-0.2-0.7-0.4-1.4-0.7-2.1
		c-0.3-0.7-0.6-1.7-1.1-3c0,0-0.2-0.3,0.2-0.5C8.7,11.4,8.8,11.8,8.8,11.8z"/>
	<path class="st3" d="M4.9,3.7C4.6,3,4.4,2.6,4.3,2.5c0-0.1,0-0.3,0-0.4s0.2-0.3,0.3-0.3c0.2-0.1,0.3,0,0.4,0s0.2,0.2,0.3,0.3
		c0,0.1,0.2,0.5,0.3,1.3c0,0,0.1,0.3-0.3,0.4C5,3.9,4.9,3.7,4.9,3.7z"/>
</g>
<g>
	<path class="st1" d="M36.8,12.5h-0.4c-0.1,0-0.1,0-0.2-0.1l-0.1-0.6h-2v1.7h1.9v0.6h-1.9v1.8h2l0-0.5c0-0.1,0.1-0.1,0.2-0.1h0.4
		v1.2h-3.8v-0.3c0-0.1,0-0.1,0.1-0.1l0.4-0.1v-4.2c-0.2,0-0.4-0.1-0.4-0.1c-0.1,0-0.1-0.1-0.1-0.1v-0.3h3.8V12.5z"/>
	<path class="st1" d="M40.4,16c0,0,0.1,0,0.2,0c0.1,0,0.1,0.1,0.1,0.1v0.3h-1.5v-0.3c0-0.1,0-0.1,0.1-0.1c0,0,0,0,0.1,0
		c0,0,0.1,0,0.1,0l-0.7-1.1c0,0,0,0.1-0.1,0.2L38.2,16c0,0,0,0,0.1,0l0.1,0c0.1,0,0.1,0.1,0.1,0.1v0.3H37v-0.3c0-0.1,0-0.1,0.1-0.1
		c0,0,0,0,0.1,0c0,0,0.1,0,0.1,0l0.2,0l0.9-1.4l-0.9-1.3c-0.1,0-0.2,0-0.2,0c-0.1,0-0.1,0-0.1,0c-0.1,0-0.1-0.1-0.1-0.1v-0.3h1.5
		v0.3c0,0.1,0,0.1-0.1,0.1c0,0,0,0,0,0s-0.1,0-0.1,0l0.7,1c0-0.1,0.1-0.1,0.1-0.2l0.5-0.8l-0.1,0l-0.1,0c-0.1,0-0.1-0.1-0.1-0.1
		v-0.3h1.5v0.3c0,0.1,0,0.1-0.1,0.1c-0.2,0-0.3,0.1-0.4,0.1l-0.9,1.2l1,1.4L40.4,16C40.3,16,40.4,16,40.4,16z"/>
	<path class="st1" d="M43.2,12.7c0.4,0,0.8,0.2,1,0.5c0.3,0.3,0.4,0.8,0.4,1.4c0,0.6-0.1,1-0.4,1.4c-0.3,0.4-0.7,0.6-1.1,0.6
		c-0.5,0-0.8-0.1-1.1-0.4v1.1l0.2,0l0.2,0c0.1,0,0.1,0.1,0.1,0.1v0.3h-1.7v-0.3c0-0.1,0-0.1,0.1-0.1l0.4-0.1v-3.9
		c-0.2,0-0.4-0.1-0.4-0.1c-0.1,0-0.1-0.1-0.1-0.1v-0.3h0.9c0.1,0,0.1,0,0.2,0.1l0.1,0.4h0C42.3,12.9,42.7,12.7,43.2,12.7z M42.8,16
		c0.4,0,0.6-0.1,0.8-0.4c0.2-0.2,0.3-0.6,0.3-1.1c0-0.5-0.1-0.8-0.2-1c-0.2-0.2-0.4-0.3-0.7-0.3c-0.4,0-0.7,0.2-1,0.6v1.8
		C42.2,15.9,42.5,16,42.8,16z"/>
	<path class="st1" d="M47,12.7c0.2,0,0.4,0,0.5,0.1l-0.1,0.5c0,0.1,0,0.1-0.1,0.1c0,0-0.1,0-0.2,0c-0.1,0-0.2,0-0.3,0
		c-0.4,0-0.7,0.3-1,0.8V16l0.4,0.1c0.1,0,0.1,0.1,0.1,0.1v0.3h-1.7v-0.3c0-0.1,0-0.1,0.1-0.1l0.4-0.1v-2.6c-0.2,0-0.4-0.1-0.4-0.1
		c-0.1,0-0.1-0.1-0.1-0.1v-0.3h0.9c0.1,0,0.1,0,0.1,0s0,0.1,0.1,0.1l0,0.6h0C46.1,13,46.5,12.7,47,12.7z"/>
	<path class="st1" d="M49.7,12.8c0.2,0.1,0.4,0.2,0.5,0.3c0.1,0.2,0.3,0.3,0.3,0.5c0.1,0.2,0.1,0.5,0.1,0.7c0,0.1,0,0.2,0,0.2
		c0,0-0.1,0.1-0.1,0.1H48c0,0.2,0,0.4,0.1,0.6c0,0.2,0.1,0.3,0.2,0.4c0.1,0.1,0.2,0.2,0.4,0.3C48.8,16,49,16,49.1,16
		c0.2,0,0.3,0,0.4-0.1c0.1,0,0.2-0.1,0.3-0.1c0.1-0.1,0.2-0.1,0.2-0.1c0.1,0,0.1-0.1,0.1-0.1c0.1,0,0.1,0,0.1,0.1l0.2,0.2
		c-0.1,0.1-0.2,0.2-0.3,0.2c-0.1,0.1-0.3,0.2-0.4,0.2c-0.1,0-0.3,0.1-0.4,0.1c-0.1,0-0.3,0-0.4,0c-0.3,0-0.5,0-0.7-0.1
		c-0.2-0.1-0.4-0.2-0.6-0.4c-0.2-0.2-0.3-0.4-0.4-0.6c-0.1-0.2-0.1-0.5-0.1-0.8c0-0.3,0-0.5,0.1-0.7c0.1-0.2,0.2-0.4,0.3-0.6
		c0.2-0.2,0.3-0.3,0.5-0.4s0.5-0.1,0.7-0.1C49.3,12.7,49.5,12.8,49.7,12.8z M48.3,13.5c-0.2,0.2-0.3,0.4-0.3,0.8h2
		c0-0.2,0-0.3-0.1-0.4c-0.1-0.2-0.1-0.3-0.2-0.3c-0.1-0.1-0.2-0.2-0.3-0.2c-0.1,0-0.2-0.1-0.4-0.1l0,0
		C48.7,13.2,48.5,13.3,48.3,13.5z"/>
	<path class="st1" d="M53.1,12.9v1h-0.3c-0.1,0-0.1,0-0.1-0.1l0-0.5c-0.2-0.1-0.4-0.1-0.6-0.1h0c-0.2,0-0.4,0.1-0.5,0.2
		c-0.1,0.1-0.2,0.2-0.2,0.3c0,0.1,0,0.2,0.1,0.3c0.1,0.1,0.2,0.2,0.4,0.3l0.2,0.1c0,0,0.1,0,0.2,0.1l0.4,0.1c0.1,0,0.2,0.1,0.3,0.2
		c0.2,0.2,0.3,0.4,0.3,0.6c0,0.4-0.1,0.6-0.4,0.8c-0.3,0.2-0.6,0.3-1,0.3c-0.4,0-0.8-0.1-1.2-0.2v-1H51c0.1,0,0.1,0,0.1,0.1l0,0.5
		c0.2,0.1,0.4,0.1,0.8,0.1c0.2,0,0.4-0.1,0.6-0.2c0.1-0.1,0.2-0.2,0.2-0.4c0-0.1,0-0.2-0.1-0.3c-0.1-0.1-0.1-0.1-0.2-0.2
		c-0.1-0.1-0.2-0.1-0.3-0.1c-0.4-0.1-0.6-0.2-0.7-0.2c-0.1-0.1-0.2-0.1-0.3-0.2c-0.2-0.2-0.3-0.4-0.3-0.7c0-0.3,0.1-0.5,0.4-0.7
		c0.2-0.2,0.6-0.3,1-0.3C52.4,12.7,52.7,12.8,53.1,12.9z"/>
	<path class="st1" d="M55.8,12.9v1h-0.3c-0.1,0-0.1,0-0.1-0.1l0-0.5c-0.2-0.1-0.4-0.1-0.6-0.1h0c-0.2,0-0.4,0.1-0.5,0.2
		c-0.1,0.1-0.2,0.2-0.2,0.3c0,0.1,0,0.2,0.1,0.3c0.1,0.1,0.2,0.2,0.4,0.3l0.2,0.1c0,0,0.1,0,0.2,0.1l0.4,0.1c0.1,0,0.2,0.1,0.3,0.2
		c0.2,0.2,0.3,0.4,0.3,0.6c0,0.4-0.1,0.6-0.4,0.8c-0.3,0.2-0.6,0.3-1,0.3c-0.4,0-0.8-0.1-1.2-0.2v-1h0.3c0.1,0,0.1,0,0.1,0.1l0,0.5
		c0.2,0.1,0.4,0.1,0.8,0.1c0.2,0,0.4-0.1,0.6-0.2c0.1-0.1,0.2-0.2,0.2-0.4c0-0.1,0-0.2-0.1-0.3c-0.1-0.1-0.1-0.1-0.2-0.2
		C55,15,54.9,15,54.8,14.9c-0.4-0.1-0.6-0.2-0.7-0.2c-0.1-0.1-0.2-0.1-0.3-0.2c-0.2-0.2-0.3-0.4-0.3-0.7c0-0.3,0.1-0.5,0.4-0.7
		c0.2-0.2,0.6-0.3,1-0.3C55.1,12.7,55.4,12.8,55.8,12.9z"/>
</g>
</svg>
